# xmcd
#
# Track frame offsets:
# 150
# 10163
# 26303
# 46728
# 56749
#
# Disc length: 890 seconds
#
# Revision: 1
# Processed by: cddbd v1.5.1PL2 Copyright (c) Steve Scherf et al.
# Submitted via: plextools 2.23
#
DISCID=30037805
DTITLE=DISASTER - SILVANUS
DYEAR=2005
DGENRE=Game
TTITLE0=zerverius/YuKa - Tears to Tiara
TTITLE1=潮見ひろ - The Door to Annwfn
TTITLE2=zerverius - Guitar協奏曲"初源の歌"
TTITLE3=zerverius - Tears To Tiara Vocal Line Ver.
TTITLE4=zerverius - Tears To Tiara Off Vocal Ver.
EXTD=YEAR: 2005
EXTT0=
EXTT1=
EXTT2=
EXTT3=
EXTT4=
PLAYORDER=
